PathFileType	4	(X/Y/Z)	Walk1_0-155.trc
DataRate	CameraRate	NumFrames	NumMarkers	Units	OrigDataRate	OrigDataStartFrame	OrigNumFrames
30	30	8	22	m	30	77	155
Frame#	Time	Hip			RHip			RKnee			RAnkle			RBigToe			RSmallToe			RHeel			LHip			LKnee			LAnkle			LBigToe			LSmallToe			LHeel			Neck			Head			Nose			RShoulder			RElbow			RWrist			LShoulder			LElbow			LWrist		
		X1	Y1	Z1	X2	Y2	Z2	X3	Y3	Z3	X4	Y4	Z4	X5	Y5	Z5	X6	Y6	Z6	X7	Y7	Z7	X8	Y8	Z8	X9	Y9	Z9	X10	Y10	Z10	X11	Y11	Z11	X12	Y12	Z12	X13	Y13	Z13	X14	Y14	Z14	X15	Y15	Z15	X16	Y16	Z16	X17	Y17	Z17	X18	Y18	Z18	X19	Y19	Z19	X20	Y20	Z20	X21	Y21	Z21	X22	Y22	Z22
78	2.6	-0.6843656719476431	0.8879257775485473	0.3592451546581102	-0.6775574054406227	0.865863169521154	0.4686000050694018	-0.6021322955620596	0.5062844870154761	0.42914920149334607	-0.6519124288686748	0.10078715146977635	0.379930420117908	-0.43611065032391577	0.03672297266650311	0.3780419289666595	-0.4793358175722714	0.027141731247652075	0.43457423713171567	-0.696708892256572	0.01826681058128485	0.36793147384938274	-0.6905491441949413	0.8696317660878305	0.24810798241423965	-0.6012822019367055	0.509190274161288	0.2169053321218676	-0.9105483964446061	0.2860564501760618	0.25451818626912015	-0.8289689595678394	0.04347618744711937	0.2531249705872972	-0.8727251536609552	0.06447588769119361	0.20233405905095034	-0.9959995843804258	0.22644762937139937	0.2844697235590995	-0.7347532365623084	1.5697269787562658	0.3513167391006242	-0.7013935495179843	1.8178517704497767	0.3644196267744273	-0.5692889184027946	1.6800825378153348	0.3739975324348196	-0.7691616801083944	1.4483706944251555	0.5307229166674597	-0.6792132250009514	1.1147260275476474	0.6166307188107095	-0.5979057720510846	0.8818205401939188	0.6333396620734553	-0.7337038371394229	1.452941119097447	0.18547044257358186	-0.7218718664832946	1.144836313488133	0.11892426714538049	-0.6814371398755584	0.8891751857317953	0.09886577921243439
79	2.6333333333333333	-0.6503555760347498	0.8965465345205824	0.36097769241621375	-0.6460886182248499	0.881354435338698	0.46815744119840597	-0.5808864774845883	0.5117475693201172	0.4267687192381561	-0.6503377083972083	0.08840986828073186	0.3625671752321797	-0.44450026826439093	0.02861731792878	0.37569992411076647	-0.4873206215966019	0.018051795280113907	0.43210905034438046	-0.6964658054722314	0.023289849688417633	0.3739344890224943	-0.6557956681216265	0.8886560640094749	0.24555242129428964	-0.5306125723548747	0.5243092425954011	0.21975059602928929	-0.7906918036885024	0.23102121308006315	0.28579854380888375	-0.699872305174579	0.014663379735102147	0.29249641620933153	-0.7409167466271993	0.04495989925665741	0.2436028483830374	-0.8813339275921515	0.18739611324457722	0.2980152664812497	-0.6942328899596031	1.5793339866963203	0.35211992961392885	-0.6580603744463396	1.8264065973308377	0.3667291248995772	-0.5246962931018427	1.6861233565288722	0.38081548442927504	-0.7263267315807564	1.4583313013443855	0.528383184530269	-0.6315090169112978	1.1278043712983001	0.6159827598442064	-0.5245019706851684	0.9005399940604203	0.6368940720805272	-0.6959446555378148	1.4588305248955429	0.18499341135559924	-0.6966565161544535	1.152973369063583	0.11705736012067529	-0.6739480847960573	0.8883079694249554	0.09770342454346058
80	2.6666666666666665	-0.6184046821717114	0.903733574284924	0.3613715469495965	-0.6167707629834956	0.8884450842272534	0.4717073388848763	-0.5999355361284497	0.5134668061155848	0.42398119809773815	-0.6370867321788507	0.11885621927726356	0.3784359781407085	-0.4400681979195838	0.030174705617043454	0.3825219139301456	-0.49438645243868906	0.01803413690030603	0.43482304315347764	-0.6765499164204402	0.04818241703419033	0.38510634972351965	-0.6197953056693172	0.8984537176837785	0.24847125723124933	-0.46810915094726957	0.5424108486317417	0.2201224865795415	-0.7168756399600305	0.2594009655390067	0.2592038476868638	-0.567300701570074	0.00850248666333805	0.30068959830073916	-0.6114585834481338	0.035354624450879196	0.24797134063514564	-0.7834589123015546	0.22199130708105771	0.2752925586018602	-0.652880333188705	1.586256100795983	0.3518997229079865	-0.6180434862623233	1.8316320160655484	0.3674411506717086	-0.44455488790817443	1.6697777761272425	0.325542595912303	-0.6897797158121269	1.4671471253418555	0.5258375750708737	-0.5711427563624213	1.1598048792378775	0.6014602005157511	-0.4517057225532017	0.9218247760906187	0.6354905681315729	-0.6570485738870937	1.4646552031501463	0.18305041862436222	-0.6742022226710463	1.159041417263313	0.12408264117359388	-0.6581851781174287	0.89668110409865	0.09869762070579544
81	2.7	-0.5827942668871657	0.906305701212697	0.360663299024754	-0.5811344660750165	0.8904833305117792	0.47341391640092567	-0.5861320621518316	0.5210672879198818	0.4217129412818747	-0.6265832839842589	0.10988728493618738	0.38245546485406556	-0.4273559329834512	0.020223127854972118	0.37909563027318943	-0.4814290188804162	-0.009979482182132429	0.4351281577798799	-0.6915011732844232	0.025898042613827412	0.3611589228924535	-0.5792159609901059	0.9011534737407046	0.2452471087896742	-0.3577607056217187	0.5726122966204349	0.2663182875196389	-0.6126871820264265	0.2273803213856762	0.26810024973860397	-0.4349488470185139	0.008760401166978482	0.29263294181060545	-0.47654006794445214	0.024316386265186743	0.24900358029381392	-0.6771400467779025	0.18506998070204458	0.2733460948452095	-0.6095417243755642	1.5915388138666493	0.3524212228220981	-0.5658713321318002	1.8291450703562107	0.35733729050289315	-0.4042603987246933	1.6736075788881353	0.33013276453553364	-0.6509623101457868	1.4717452715560977	0.5258057339503022	-0.5166728651140834	1.1661029887613394	0.6070269218122349	-0.37679049700662065	0.933653940215197	0.6313051643310623	-0.6176480975171388	1.4685927295657497	0.18290976415894517	-0.6485550464309487	1.1600717504141476	0.12926153957606312	-0.641370061590041	0.9038592229616988	0.0948336112464894
82	2.7333333333333334	-0.541898710437842	0.9050957797274868	0.3670256719673455	-0.5487940755802198	0.893051162490768	0.4781411119878988	-0.5749701802927549	0.5163429640418405	0.42301523786698997	-0.6297220374444533	0.1129319021226691	0.37608520269870277	-0.48698063257769436	0.0167951495784517	0.36003177758732197	-0.5253621229228214	0.02005221042793267	0.41975352372109453	-0.6767981725221638	0.03900196738160032	0.3669892804640914	-0.5337718676441989	0.9014325095331939	0.2474215247594652	-0.30764336496667766	0.5774868152347453	0.2659621526199014	-0.5095165734688165	0.19086914366620336	0.2606446574857971	-0.24082139017761206	0.06875984102098723	0.2680569540738388	-0.27599547100618094	0.07224371691728165	0.2219319701783889	-0.5602298879663669	0.14098067993355703	0.2713511495365717	-0.5705994499937115	1.5920124517284704	0.35400876988463975	-0.5274429625213328	1.8299336463247797	0.3535265607448264	-0.37628799777215094	1.6723470333974748	0.33647206553346043	-0.6077501088944364	1.4710027905362053	0.5278860445732866	-0.46787135572408894	1.1696061757098262	0.6100607376674793	-0.309595787692138	0.9489673469908125	0.6280984374136553	-0.5780445998514766	1.4697080350882719	0.18381193458355752	-0.6220911135009525	1.1604583926251812	0.1289547548819559	-0.6217105617160912	0.9061302479805066	0.09402494631629474
83	2.7666666666666666	-0.5050296399216812	0.9086251318681426	0.36288646205843067	-0.5217521502706348	0.894790839224826	0.47963502078477877	-0.5591737533692678	0.5145754744409486	0.4208886813688829	-0.6232422337202677	0.11695545733799663	0.3789884209206291	-0.4811887567787406	0.010047223730698437	0.409472018867656	-0.5348734127042523	0.014505061922323334	0.4705547715418614	-0.6965829172263462	0.03142034181690225	0.35456939258932474	-0.49304156139349065	0.9049241108364467	0.24710667488695975	-0.2654817900395261	0.5776882740219382	0.2623917265200053	-0.3919390089751372	0.1750654239676487	0.25023114966232507	-0.18089666651263103	0.07391646645736379	0.2428467945338936	-0.21611498655835856	0.07401941695629762	0.20741421727945009	-0.4394851606611071	0.11792402280607805	0.2626418837309558	-0.5308238832871228	1.5891196069757978	0.35482577651224456	-0.4741752649547014	1.843891010240169	0.36207004682075244	-0.33738207277553134	1.6690996912110407	0.34109430880823055	-0.5672502351138555	1.4705081627250753	0.5287389740633925	-0.42494679091495924	1.1732219963862027	0.6088689433638047	-0.24903096904755131	0.9647202863611585	0.6222479808601739	-0.5353740686706885	1.4664179557391235	0.1873654594660667	-0.5888208059398881	1.1611137868807335	0.13249535307598137	-0.588259732435409	0.895727746109528	0.09602846566305737
84	2.8	-0.45033577220942234	0.9057865680526432	0.3504308574373603	-0.46456105486092436	0.906348587179422	0.46943135660206	-0.5215772224069387	0.5087873173062493	0.422276490760102	-0.6391427894632296	0.1015832338949885	0.369517323197477	-0.44642263079997646	0.015117968633980225	0.3825217806375568	-0.48895425452159835	0.01482390625024947	0.4382013055656297	-0.698637170510863	0.02760697850927504	0.34886830127635826	-0.45518067657241196	0.8972676639180158	0.2394708439985186	-0.2568708678100372	0.5423481613432217	0.2495079741834844	-0.21553325042089863	0.15011711976395575	0.2694194364944481	0.014517991984880563	0.1044169863173976	0.2758794391722088	-0.02264682239056714	0.09198681894902573	0.22375957932390064	-0.2515938652489115	0.07266013713591808	0.26814080358819214	-0.477929824922837	1.568538625396568	0.36086291398815024	-0.4403525460639281	1.8334766412957402	0.35609750425367315	-0.28686465699280517	1.6655209450820543	0.3353449879434575	-0.48842333225507684	1.4483053574632714	0.5381848198050496	-0.37716984717237634	1.1713495979406114	0.606232725918559	-0.18571544213739893	0.9704073841745537	0.6151658602523553	-0.5163277669041002	1.4531874731812768	0.16342374821085429	-0.5718358142423506	1.1487979748299586	0.12084567991580614	-0.5455268893500063	0.8952153075465449	0.07824482739353603
85	2.8333333333333335	-0.4121529640670885	0.9001788699146055	0.3447945265339013	-0.4292660935744454	0.8833031703195316	0.46383481261803833	-0.5061230991713679	0.5001702830704704	0.4208790608597676	-0.6364236466129218	0.10589761503175453	0.3673984222335584	-0.43483609392671696	0.018418631922081916	0.38108483680535626	-0.4836461782111435	0.011916361484784223	0.4441988187579459	-0.6912245004874236	0.03845515983257483	0.341999475530094	-0.4097514052500966	0.8761738219187472	0.2393839704447255	-0.21773102739044187	0.5271490509561325	0.258351391580163	-0.10078478606295087	0.16415066128600067	0.2706547205500763	0.1298602898581796	0.13886067406901711	0.27415448538136267	0.09274069827180056	0.1205557971903929	0.2200460337660928	-0.12817935090506213	0.07708529603262665	0.27615870261996944	-0.4297570431307758	1.561129302611928	0.35364357946248826	-0.40900167871754606	1.8208458097548434	0.3558363463639505	-0.24634625187938655	1.6612518637082787	0.33492110984976664	-0.4420951190079759	1.439035399605887	0.5417336743880448	-0.3297618357734293	1.1652240840438959	0.607626709401765	-0.12443342436643448	0.9768462740213786	0.6081887293271461	-0.4666235902470012	1.4438475778894262	0.15551346955242457	-0.5246066811989962	1.1388157513222221	0.11505844840090447	-0.5146693383841502	0.8909633185161404	0.07824412249167997
